<svg viewBox="0 0 100 100" xmlns="http://www.w3.org/2000/svg" width="512" height="512">
  <path fill-rule="evenodd" fill="#000000" d="M 18 5 L 76 5 Q 88 5 88 17 L 88 61 Q 88 73 76 73 L 36 73 L 19 90 L 25 73 L 18 73 Q 6 73 6 61 L 6 17 Q 6 5 18 5 Z M 18 14 L 76 14 Q 80 14 80 18 L 80 32 Q 80 36 76 36 L 18 36 Q 14 36 14 32 L 14 18 Q 14 14 18 14 Z M 18 41 L 40 41 Q 44 41 44 45 L 44 63 Q 44 67 40 67 L 18 67 Q 14 67 14 63 L 14 45 Q 14 41 18 41 Z M 54 41 L 76 41 Q 80 41 80 45 L 80 63 Q 80 67 76 67 L 54 67 Q 50 67 50 63 L 50 45 Q 50 41 54 41 Z M 65 48 L 67 52 L 71 54 L 67 56 L 65 60 L 63 56 L 59 54 L 63 52 Z"/>
</svg>
